<svg width="317" height="325" viewBox="0 0 317 325" fill="none" xmlns="http://www.w3.org/2000/svg">
<ellipse cx="158.5" cy="162.5" rx="158.5" ry="162.5" fill="white"/>
<path d="M285.691 121.699C277.63 121.699 271.723 127.795 268.058 135.094C264.393 142.394 262.384 151.735 262.384 162C262.384 172.265 264.393 181.606 268.058 188.905C271.723 196.204 277.629 202.301 285.691 202.301C293.753 202.301 299.661 196.204 303.326 188.905C306.991 181.606 309 172.265 309 162C309 151.735 306.991 142.394 303.326 135.095C299.661 127.795 293.753 121.699 285.691 121.699ZM288.898 135.653C289.979 136.689 291.164 138.262 292.324 140.572C294.87 145.641 296.702 153.39 296.702 162C296.702 170.61 294.87 178.357 292.324 183.428C289.778 188.498 287.106 190.052 285.691 190.052C284.276 190.052 281.604 188.498 279.058 183.428C276.512 178.358 274.682 170.61 274.682 162C274.682 161.825 274.687 161.652 274.689 161.478C276.32 162.752 278.133 163.419 279.974 163.423C283.007 163.423 285.917 161.622 288.062 158.418C290.207 155.213 291.412 150.867 291.412 146.335C291.411 142.451 290.524 138.683 288.898 135.653Z" fill="black"/>
<path d="M157.698 6C100.983 6 51.5482 38.3322 25.7922 86.2437L19.7835 98.7025C18.273 102.223 16.8913 105.798 15.6409 109.418L11.9008 121.877C9.11644 132.75 7.44205 144.092 7 155.771V168.228C8.12182 197.874 17.2104 225.356 32.1116 248.473L41.0334 260.932C68.7035 295.8 110.702 318 157.698 318C221.877 318 276.735 276.6 298.503 218.071C295.11 225.344 291.018 231.461 286.051 235.995C281.038 240.57 274.888 243.55 268.238 243.55C261.587 243.55 255.437 240.57 250.424 235.995C245.411 231.419 241.287 225.233 237.875 217.87C231.051 203.145 227.076 183.576 227.076 162C227.076 140.423 231.051 120.853 237.875 106.129C241.288 98.7662 245.411 92.5804 250.424 88.0047C255.437 83.4298 261.587 80.4497 268.238 80.4497C274.888 80.4497 281.038 83.4298 286.051 88.0047C291.018 92.5382 295.11 98.6554 298.503 105.929C276.735 47.399 221.877 6 157.698 6Z" fill="black"/>
</svg>
